<svg width="571" height="587" viewBox="0 0 571 587" fill="none" xmlns="http://www.w3.org/2000/svg">
<path d="M32.0439 337.975C21.2554 327.352 11.3832 317.633 0 306.427C4.59246 304.886 7.12407 303.314 9.66945 303.292C38.5512 303.049 67.4355 303.105 96.3181 302.926C102.85 302.886 108.152 304.814 112.779 309.434C129.507 326.138 146.385 342.7 163.271 359.252C202.675 397.874 242.108 436.467 281.577 475.026C282.826 476.246 284.595 476.964 286.039 477.865C292.057 478.149 294.767 473.587 298.076 470.337C318.839 449.941 339.449 429.397 360.105 408.897C391.946 377.294 424 345.891 455.471 313.943C463.396 305.897 471.78 302.634 483.109 302.915C508.289 303.539 533.497 303.068 558.693 303.187C562.74 303.206 566.784 303.97 570.843 304.391C570.537 306.829 570.833 308.351 570.198 308.979C478.359 399.758 386.458 490.478 294.512 581.154C292.447 583.189 289.825 584.69 287.697 586.267C273.808 577.243 201.213 506.458 158.487 462.821C117.373 420.832 74.8591 380.142 32.0439 337.975Z" fill="#CE521D"/>
<path d="M362.061 74.1725C393.224 105.605 423.488 136.116 453.68 166.695C454.414 167.439 454.34 168.938 454.907 171.087C452.774 173.828 450.509 177.322 447.671 180.298C404.103 225.986 300.37 325.834 285.961 335.83C282.98 333.511 279.463 331.284 276.574 328.451C222.497 275.415 168.55 222.254 114.402 169.287C108.005 163.029 104.031 156.505 104.093 147.327C104.402 101.895 104.321 56.4613 104.502 11.0284C104.513 8.17234 105.575 5.32022 106.278 1.82279C110.919 1.25741 115.06 0.323224 119.203 0.313576C170.788 0.193965 222.374 0.428691 273.956 0.00144896C284.155 -0.0828593 291.301 3.51345 298.078 10.4021C318.888 31.5558 340.098 52.3353 362.061 74.1725ZM245.744 92.2203C231.13 77.6942 216.161 63.486 202.04 48.5191C193.977 39.9725 185.319 35.0029 173.074 36.4161C167.014 37.1153 160.788 36.3297 154.666 36.6838C151.173 36.8858 147.738 38.0291 143.863 38.8346C143.383 43.6409 142.633 47.7333 142.62 51.8277C142.539 78.7377 142.911 105.653 142.479 132.556C142.332 141.662 145.338 148.431 151.843 154.825C193.338 195.611 234.553 236.667 275.96 277.54C278.839 280.383 282.516 282.46 286.34 285.275C289.777 282.585 292.831 280.643 295.331 278.171C328.072 245.805 360.745 213.373 393.351 180.878C393.966 180.265 393.566 178.688 393.712 176.442C390.386 175.966 386.975 175.133 383.545 175.049C370.65 174.731 357.746 174.421 344.851 174.564C333.077 174.694 323.995 170.659 315.741 162.102C293.463 139.005 270.366 116.658 245.744 92.2203Z" fill="#CE521D"/>
</svg>
